<mxfile host="app.diagrams.net" modified="2024-05-22T16:58:05.132Z" agent="Mozilla/5.0 (Windows NT 10.0; Win64; x64) AppleWebKit/537.36 (KHTML, like Gecko) Chrome/124.0.0.0 Safari/537.36" etag="Nk1kHAjWo2b4nR5_2Eg9" version="24.4.6" type="github">
  <diagram name="Página-1" id="fv2aRnsnfmrNdkzlG7si">
    <mxGraphModel dx="1434" dy="772" grid="1" gridSize="10" guides="1" tooltips="1" connect="1" arrows="1" fold="1" page="1" pageScale="1" pageWidth="827" pageHeight="1169" math="0" shadow="0">
      <root>
        <mxCell id="0" />
        <mxCell id="1" parent="0" />
        <mxCell id="0PCjZUmKLDN5c2IVZasX-1" value="&lt;font style=&quot;vertical-align: inherit;&quot;&gt;&lt;font style=&quot;vertical-align: inherit;&quot;&gt;EXEMPLO 1&lt;/font&gt;&lt;/font&gt;&lt;div&gt;&lt;font style=&quot;vertical-align: inherit;&quot;&gt;&lt;font style=&quot;vertical-align: inherit;&quot;&gt;&lt;br&gt;&lt;/font&gt;&lt;/font&gt;&lt;/div&gt;" style="shape=umlFrame;whiteSpace=wrap;html=1;pointerEvents=0;width=230;height=50;" vertex="1" parent="1">
          <mxGeometry x="220" y="40" width="570" height="600" as="geometry" />
        </mxCell>
        <mxCell id="0PCjZUmKLDN5c2IVZasX-20" style="edgeStyle=orthogonalEdgeStyle;rounded=0;orthogonalLoop=1;jettySize=auto;html=1;" edge="1" parent="1" source="0PCjZUmKLDN5c2IVZasX-2" target="0PCjZUmKLDN5c2IVZasX-18">
          <mxGeometry relative="1" as="geometry" />
        </mxCell>
        <mxCell id="0PCjZUmKLDN5c2IVZasX-2" value="&lt;font style=&quot;vertical-align: inherit;&quot;&gt;&lt;font style=&quot;vertical-align: inherit;&quot;&gt;SECRETARIA&lt;/font&gt;&lt;/font&gt;" style="shape=umlActor;verticalLabelPosition=bottom;verticalAlign=top;html=1;" vertex="1" parent="1">
          <mxGeometry x="140" y="120" width="30" height="60" as="geometry" />
        </mxCell>
        <mxCell id="0PCjZUmKLDN5c2IVZasX-3" value="&lt;font style=&quot;vertical-align: inherit;&quot;&gt;&lt;font style=&quot;vertical-align: inherit;&quot;&gt;ALUNO&lt;/font&gt;&lt;/font&gt;" style="shape=umlActor;verticalLabelPosition=bottom;verticalAlign=top;html=1;" vertex="1" parent="1">
          <mxGeometry x="150" y="460" width="30" height="60" as="geometry" />
        </mxCell>
        <mxCell id="0PCjZUmKLDN5c2IVZasX-21" style="edgeStyle=orthogonalEdgeStyle;rounded=0;orthogonalLoop=1;jettySize=auto;html=1;" edge="1" parent="1" source="0PCjZUmKLDN5c2IVZasX-8" target="0PCjZUmKLDN5c2IVZasX-10">
          <mxGeometry relative="1" as="geometry" />
        </mxCell>
        <mxCell id="0PCjZUmKLDN5c2IVZasX-8" value="&lt;font style=&quot;vertical-align: inherit;&quot;&gt;&lt;font style=&quot;vertical-align: inherit;&quot;&gt;PROFESSOR&lt;/font&gt;&lt;/font&gt;" style="shape=umlActor;verticalLabelPosition=bottom;verticalAlign=top;html=1;" vertex="1" parent="1">
          <mxGeometry x="140" y="290" width="30" height="60" as="geometry" />
        </mxCell>
        <mxCell id="0PCjZUmKLDN5c2IVZasX-31" value="&amp;lt;&amp;lt;Extends&amp;gt;&amp;gt;" style="edgeStyle=orthogonalEdgeStyle;rounded=0;orthogonalLoop=1;jettySize=auto;html=1;entryX=0.5;entryY=1;entryDx=0;entryDy=0;dashed=1;dashPattern=12 12;endArrow=open;endFill=0;" edge="1" parent="1" source="0PCjZUmKLDN5c2IVZasX-9" target="0PCjZUmKLDN5c2IVZasX-10">
          <mxGeometry relative="1" as="geometry" />
        </mxCell>
        <mxCell id="0PCjZUmKLDN5c2IVZasX-9" value="&lt;font style=&quot;vertical-align: inherit;&quot;&gt;&lt;font style=&quot;vertical-align: inherit;&quot;&gt;&lt;font style=&quot;vertical-align: inherit;&quot;&gt;&lt;font style=&quot;vertical-align: inherit;&quot;&gt;VerNotas&lt;/font&gt;&lt;/font&gt;&lt;/font&gt;&lt;/font&gt;" style="ellipse;whiteSpace=wrap;html=1;" vertex="1" parent="1">
          <mxGeometry x="290" y="440" width="140" height="70" as="geometry" />
        </mxCell>
        <mxCell id="0PCjZUmKLDN5c2IVZasX-26" value="&amp;lt;&amp;lt;Include&amp;gt;&amp;gt;" style="edgeStyle=orthogonalEdgeStyle;rounded=0;orthogonalLoop=1;jettySize=auto;html=1;dashed=1;dashPattern=12 12;endArrow=open;endFill=0;" edge="1" parent="1" source="0PCjZUmKLDN5c2IVZasX-10" target="0PCjZUmKLDN5c2IVZasX-19">
          <mxGeometry relative="1" as="geometry" />
        </mxCell>
        <mxCell id="0PCjZUmKLDN5c2IVZasX-10" value="&lt;font style=&quot;vertical-align: inherit;&quot;&gt;&lt;font style=&quot;vertical-align: inherit;&quot;&gt;GerenciarNotas&lt;/font&gt;&lt;/font&gt;" style="ellipse;whiteSpace=wrap;html=1;" vertex="1" parent="1">
          <mxGeometry x="274" y="285" width="140" height="70" as="geometry" />
        </mxCell>
        <mxCell id="0PCjZUmKLDN5c2IVZasX-27" value="&amp;lt;&amp;lt;Include&amp;gt;&amp;gt;" style="edgeStyle=orthogonalEdgeStyle;rounded=0;orthogonalLoop=1;jettySize=auto;html=1;entryX=0;entryY=0.5;entryDx=0;entryDy=0;dashed=1;dashPattern=12 12;endArrow=open;endFill=0;" edge="1" parent="1" source="0PCjZUmKLDN5c2IVZasX-18" target="0PCjZUmKLDN5c2IVZasX-19">
          <mxGeometry relative="1" as="geometry" />
        </mxCell>
        <mxCell id="0PCjZUmKLDN5c2IVZasX-18" value="&lt;font style=&quot;vertical-align: inherit;&quot;&gt;&lt;font style=&quot;vertical-align: inherit;&quot;&gt;GerenciarBoletim&lt;/font&gt;&lt;/font&gt;" style="ellipse;whiteSpace=wrap;html=1;" vertex="1" parent="1">
          <mxGeometry x="281" y="115" width="140" height="70" as="geometry" />
        </mxCell>
        <mxCell id="0PCjZUmKLDN5c2IVZasX-19" value="&lt;font style=&quot;vertical-align: inherit;&quot;&gt;&lt;font style=&quot;vertical-align: inherit;&quot;&gt;&lt;font style=&quot;vertical-align: inherit;&quot;&gt;&lt;font style=&quot;vertical-align: inherit;&quot;&gt;Verificação&lt;/font&gt;&lt;/font&gt;&lt;/font&gt;&lt;/font&gt;" style="ellipse;whiteSpace=wrap;html=1;" vertex="1" parent="1">
          <mxGeometry x="500" y="130" width="140" height="70" as="geometry" />
        </mxCell>
        <mxCell id="0PCjZUmKLDN5c2IVZasX-22" style="edgeStyle=orthogonalEdgeStyle;rounded=0;orthogonalLoop=1;jettySize=auto;html=1;entryX=0.143;entryY=0.714;entryDx=0;entryDy=0;entryPerimeter=0;" edge="1" parent="1" source="0PCjZUmKLDN5c2IVZasX-3" target="0PCjZUmKLDN5c2IVZasX-9">
          <mxGeometry relative="1" as="geometry" />
        </mxCell>
        <mxCell id="0PCjZUmKLDN5c2IVZasX-28" value="Deve haver uma verificação de acesso" style="html=1;dropTarget=0;whiteSpace=wrap;" vertex="1" parent="1">
          <mxGeometry x="500" y="55" width="150" height="65" as="geometry" />
        </mxCell>
        <mxCell id="0PCjZUmKLDN5c2IVZasX-29" value="" style="shape=module;jettyWidth=8;jettyHeight=4;" vertex="1" parent="0PCjZUmKLDN5c2IVZasX-28">
          <mxGeometry x="1" width="20" height="20" relative="1" as="geometry">
            <mxPoint x="-27" y="7" as="offset" />
          </mxGeometry>
        </mxCell>
      </root>
    </mxGraphModel>
  </diagram>
</mxfile>
